<?xml version="1.0" encoding="UTF-8"?><svg id="Layer_2" xmlns="http://www.w3.org/2000/svg" viewBox="0 0 10.128 7.444"><defs><style>.cls-1{fill:#790c0c;}</style></defs><g id="Layer_4"><path class="cls-1" d="M6.444,1v1.439h2.684v4.005H1V2.439h2.684v-1.439h2.76M7.444,0H2.684v1.439H0v6.005h10.128V1.439h-2.684V0h0Z"/><path class="cls-1" d="M5.064,3.488c.468,0,.849.381.849.849s-.381.849-.849.849-.849-.381-.849-.849.381-.849.849-.849M5.064,2.488c-1.021,0-1.849.828-1.849,1.849s.828,1.849,1.849,1.849,1.849-.828,1.849-1.849-.828-1.849-1.849-1.849h0Z"/><circle class="cls-1" cx="7.856" cy="3.489" r=".493"/></g></svg>